{"accessors" : [{"bufferView" : 0, "byteOffset" : 0, "componentType" : 5123, "count" : 318, "type" : "SCALAR", "max" : [292], "min" : [0]}, {"bufferView" : 1, "byteOffset" : 0, "componentType" : 5126, "count" : 293, "type" : "VEC3", "max" : [0.013668140396475792, 0, -0.01281612366437912], "min" : [0.009089339524507523, 0, -0.021872956305742264], "name" : "POSITION"}, {"bufferView" : 1, "byteOffset" : 12, "componentType" : 5126, "count" : 293, "type" : "VEC3", "max" : [0, 1.0000044107437134, -0], "min" : [0, 1.0000042915344238, -0], "name" : "NORMAL"}, {"bufferView" : 1, "byteOffset" : 24, "componentType" : 5126, "count" : 293, "type" : "VEC2", "max" : [1, 1], "min" : [0, 1], "name" : "TEXCOORD_0"}, {"bufferView" : 0, "byteOffset" : 636, "componentType" : 5123, "count" : 366, "type" : "SCALAR", "max" : [304], "min" : [0]}, {"bufferView" : 2, "byteOffset" : 0, "componentType" : 5126, "count" : 305, "type" : "VEC3", "max" : [0.010308736003935337, 0, -0.01001648511737585], "min" : [0.0008409325964748859, 0, -0.021263452246785164], "name" : "POSITION"}, {"bufferView" : 2, "byteOffset" : 12, "componentType" : 5126, "count" : 305, "type" : "VEC3", "max" : [0, 1.0000044107437134, -0], "min" : [0, 1.0000042915344238, -0], "name" : "NORMAL"}, {"bufferView" : 2, "byteOffset" : 24, "componentType" : 5126, "count" : 305, "type" : "VEC2", "max" : [1, 1], "min" : [0, 1], "name" : "TEXCOORD_0"}, {"bufferView" : 0, "byteOffset" : 1368, "componentType" : 5123, "count" : 264, "type" : "SCALAR", "max" : [225], "min" : [0]}, {"bufferView" : 3, "byteOffset" : 0, "componentType" : 5126, "count" : 226, "type" : "VEC3", "max" : [0.03366499021649361, 0, -0.0018042116425931454], "min" : [0.01840684562921524, 0, -0.020530683919787407], "name" : "POSITION"}, {"bufferView" : 3, "byteOffset" : 12, "componentType" : 5126, "count" : 226, "type" : "VEC3", "max" : [0, 1.0000044107437134, -0], "min" : [0, 1.0000042915344238, -0], "name" : "NORMAL"}, {"bufferView" : 3, "byteOffset" : 24, "componentType" : 5126, "count" : 226, "type" : "VEC2", "max" : [1, 1], "min" : [0, 1], "name" : "TEXCOORD_0"}, {"bufferView" : 0, "byteOffset" : 1896, "componentType" : 5123, "count" : 1872, "type" : "SCALAR", "max" : [1681], "min" : [0]}, {"bufferView" : 4, "byteOffset" : 0, "componentType" : 5126, "count" : 1682, "type" : "VEC3", "max" : [0.022897295653820038, 0.003000000026077032, -0.00683636125177145], "min" : [0.013586302287876606, -0.003000000026077032, -0.01589653268456459], "name" : "POSITION"}, {"bufferView" : 4, "byteOffset" : 12, "componentType" : 5126, "count" : 1682, "type" : "VEC3", "max" : [1.0000019073486328, 1.0000044107437134, 0.9999483823776245], "min" : [-0.999172031879425, -1.0000044107437134, -0.9999950528144836], "name" : "NORMAL"}, {"bufferView" : 4, "byteOffset" : 24, "componentType" : 5126, "count" : 1682, "type" : "VEC2", "max" : [1, 1], "min" : [0, 0], "name" : "TEXCOORD_0"}, {"bufferView" : 0, "byteOffset" : 5640, "componentType" : 5123, "count" : 282, "type" : "SCALAR", "max" : [227], "min" : [0]}, {"bufferView" : 5, "byteOffset" : 0, "componentType" : 5126, "count" : 228, "type" : "VEC3", "max" : [0.00998009741306305, 0, -0.0018049892969429493], "min" : [0.005360531620681286, 0, -0.009157929569482803], "name" : "POSITION"}, {"bufferView" : 5, "byteOffset" : 12, "componentType" : 5126, "count" : 228, "type" : "VEC3", "max" : [0, 1.0000044107437134, -0], "min" : [0, 1.0000042915344238, -0], "name" : "NORMAL"}, {"bufferView" : 5, "byteOffset" : 24, "componentType" : 5126, "count" : 228, "type" : "VEC2", "max" : [1, 1], "min" : [0, 1], "name" : "TEXCOORD_0"}, {"bufferView" : 0, "byteOffset" : 6204, "componentType" : 5123, "count" : 1284, "type" : "SCALAR", "max" : [1163], "min" : [0]}, {"bufferView" : 6, "byteOffset" : 0, "componentType" : 5126, "count" : 1164, "type" : "VEC3", "max" : [0.013668140396475792, 0.003000000026077032, -0.01281612366437912], "min" : [0.009089339524507523, -0.003000000026077032, -0.021872956305742264], "name" : "POSITION"}, {"bufferView" : 6, "byteOffset" : 12, "componentType" : 5126, "count" : 1164, "type" : "VEC3", "max" : [0.9996882081031799, 1.0000044107437134, 0.9815682172775269], "min" : [-0.9998584985733032, -1.0000044107437134, -0.9990513324737549], "name" : "NORMAL"}, {"bufferView" : 6, "byteOffset" : 24, "componentType" : 5126, "count" : 1164, "type" : "VEC2", "max" : [1, 1], "min" : [0, 0], "name" : "TEXCOORD_0"}, {"bufferView" : 0, "byteOffset" : 8772, "componentType" : 5123, "count" : 1476, "type" : "SCALAR", "max" : [1327], "min" : [0]}, {"bufferView" : 7, "byteOffset" : 0, "componentType" : 5126, "count" : 1328, "type" : "VEC3", "max" : [0.010308736003935337, 0.003000000026077032, -0.01001648511737585], "min" : [0.0008409325964748859, -0.003000000026077032, -0.021263452246785164], "name" : "POSITION"}, {"bufferView" : 7, "byteOffset" : 12, "componentType" : 5126, "count" : 1328, "type" : "VEC3", "max" : [0.9799897074699402, 1.0000044107437134, 0.9961131811141968], "min" : [-0.9351065158843994, -1.0000044107437134, -0.9999985694885254], "name" : "NORMAL"}, {"bufferView" : 7, "byteOffset" : 24, "componentType" : 5126, "count" : 1328, "type" : "VEC2", "max" : [1, 1], "min" : [0, 0], "name" : "TEXCOORD_0"}, {"bufferView" : 0, "byteOffset" : 11724, "componentType" : 5123, "count" : 1068, "type" : "SCALAR", "max" : [959], "min" : [0]}, {"bufferView" : 8, "byteOffset" : 0, "componentType" : 5126, "count" : 960, "type" : "VEC3", "max" : [0.03366499021649361, 0.003000000026077032, -0.0018042116425931454], "min" : [0.01840684562921524, -0.003000000026077032, -0.020530683919787407], "name" : "POSITION"}, {"bufferView" : 8, "byteOffset" : 12, "componentType" : 5126, "count" : 960, "type" : "VEC3", "max" : [1.0000044107437134, 1.0000044107437134, 1.0000044107437134], "min" : [-1.0000044107437134, -1.0000044107437134, -1.0000044107437134], "name" : "NORMAL"}, {"bufferView" : 8, "byteOffset" : 24, "componentType" : 5126, "count" : 960, "type" : "VEC2", "max" : [1, 1], "min" : [0, 0], "name" : "TEXCOORD_0"}, {"bufferView" : 0, "byteOffset" : 13860, "componentType" : 5123, "count" : 468, "type" : "SCALAR", "max" : [404], "min" : [0]}, {"bufferView" : 9, "byteOffset" : 0, "componentType" : 5126, "count" : 405, "type" : "VEC3", "max" : [0.022897295653820038, 0, -0.00683636125177145], "min" : [0.013586302287876606, 0, -0.01589653268456459], "name" : "POSITION"}, {"bufferView" : 9, "byteOffset" : 12, "componentType" : 5126, "count" : 405, "type" : "VEC3", "max" : [0, 1.0000044107437134, -0], "min" : [0, 1.0000042915344238, -0], "name" : "NORMAL"}, {"bufferView" : 9, "byteOffset" : 24, "componentType" : 5126, "count" : 405, "type" : "VEC2", "max" : [1, 1], "min" : [0, 1], "name" : "TEXCOORD_0"}, {"bufferView" : 9, "byteOffset" : 32, "componentType" : 5126, "count" : 405, "type" : "VEC3", "max" : [1, 0, 0.09989874064922333], "min" : [1, 0, 0.09989874064922333], "name" : "COLOR_0"}, {"bufferView" : 0, "byteOffset" : 14796, "componentType" : 5123, "count" : 1140, "type" : "SCALAR", "max" : [1005], "min" : [0]}, {"bufferView" : 10, "byteOffset" : 0, "componentType" : 5126, "count" : 1006, "type" : "VEC3", "max" : [0.00998009741306305, 0.003000000026077032, -0.0018049892969429493], "min" : [0.005360531620681286, -0.003000000026077032, -0.009157929569482803], "name" : "POSITION"}, {"bufferView" : 10, "byteOffset" : 12, "componentType" : 5126, "count" : 1006, "type" : "VEC3", "max" : [1.0000040531158447, 1.0000044107437134, 0.9999797344207764], "min" : [-0.9995757341384888, -1.0000044107437134, -0.9944721460342407], "name" : "NORMAL"}, {"bufferView" : 10, "byteOffset" : 24, "componentType" : 5126, "count" : 1006, "type" : "VEC2", "max" : [1, 1], "min" : [0, 0], "name" : "TEXCOORD_0"}], "asset" : {"generator" : "Aspose.3D 23.4.0", "version" : "2.0"}, "buffers" : [{"uri" : "data:application/octet-stream;base64,", "byteLength" : 295952}], "bufferViews" : [{"buffer" : 0, "byteOffset" : 0, "byteLength" : 17076, "target" : 34963}, {"buffer" : 0, "byteOffset" : 17080, "byteLength" : 10176, "byteStride" : 32, "target" : 34962}, {"buffer" : 0, "byteOffset" : 27260, "byteLength" : 11712, "byteStride" : 32, "target" : 34962}, {"buffer" : 0, "byteOffset" : 38976, "byteLength" : 8448, "byteStride" : 32, "target" : 34962}, {"buffer" : 0, "byteOffset" : 47428, "byteLength" : 59904, "byteStride" : 32, "target" : 34962}, {"buffer" : 0, "byteOffset" : 107336, "byteLength" : 9024, "byteStride" : 32, "target" : 34962}, {"buffer" : 0, "byteOffset" : 116364, "byteLength" : 41088, "byteStride" : 32, "target" : 34962}, {"buffer" : 0, "byteOffset" : 157456, "byteLength" : 47232, "byteStride" : 32, "target" : 34962}, {"buffer" : 0, "byteOffset" : 204692, "byteLength" : 34176, "byteStride" : 32, "target" : 34962}, {"buffer" : 0, "byteOffset" : 238872, "byteLength" : 20592, "byteStride" : 44, "target" : 34962}, {"buffer" : 0, "byteOffset" : 259468, "byteLength" : 36480, "byteStride" : 32, "target" : 34962}], "materials" : [{"name" : "SVGMat.001", "pbrMetallicRoughness" : {"baseColorFactor" : [1, 0, 0.09989874064922333, 1], "metallicFactor" : 0, "roughnessFactor" : 0.4000000059604645}, "emissiveFactor" : [0, 0, 0], "alphaMode" : "OPAQUE", "doubleSided" : true}, {"name" : "SVGMat.001", "pbrMetallicRoughness" : {"baseColorFactor" : [1, 0, 0.09989874064922333, 1], "metallicFactor" : 0, "roughnessFactor" : 0.4000000059604645}, "emissiveFactor" : [0, 0, 0], "alphaMode" : "OPAQUE", "doubleSided" : true}, {"name" : "SVGMat.001", "pbrMetallicRoughness" : {"baseColorFactor" : [1, 0, 0.09989874064922333, 1], "metallicFactor" : 0, "roughnessFactor" : 0.4000000059604645}, "emissiveFactor" : [0, 0, 0], "alphaMode" : "OPAQUE", "doubleSided" : true}, {"name" : "SVGMat.001", "pbrMetallicRoughness" : {"baseColorFactor" : [1, 0, 0.09989874064922333, 1], "metallicFactor" : 0, "roughnessFactor" : 0.4000000059604645}, "emissiveFactor" : [0, 0, 0], "alphaMode" : "OPAQUE", "doubleSided" : true}, {"name" : "SVGMat.001", "pbrMetallicRoughness" : {"baseColorFactor" : [1, 0, 0.09989874064922333, 1], "metallicFactor" : 0, "roughnessFactor" : 0.4000000059604645}, "emissiveFactor" : [0, 0, 0], "alphaMode" : "OPAQUE", "doubleSided" : true}, {"name" : "SVGMat.003", "pbrMetallicRoughness" : {"baseColorFactor" : [1, 0, 0.09989874064922333, 1], "metallicFactor" : 0, "roughnessFactor" : 0.4000000059604645}, "emissiveFactor" : [0, 0, 0], "alphaMode" : "OPAQUE", "doubleSided" : true}, {"name" : "SVGMat.003", "pbrMetallicRoughness" : {"baseColorFactor" : [1, 0, 0.09989874064922333, 1], "metallicFactor" : 0, "roughnessFactor" : 0.4000000059604645}, "emissiveFactor" : [0, 0, 0], "alphaMode" : "OPAQUE", "doubleSided" : true}, {"name" : "SVGMat.001", "pbrMetallicRoughness" : {"baseColorFactor" : [1, 0, 0.09989874064922333, 1], "metallicFactor" : 0, "roughnessFactor" : 0.4000000059604645}, "emissiveFactor" : [0, 0, 0], "alphaMode" : "OPAQUE", "doubleSided" : true}, {"name" : "SVGMat.003", "pbrMetallicRoughness" : {"baseColorFactor" : [1, 0, 0.09989874064922333, 1], "metallicFactor" : 0, "roughnessFactor" : 0.4000000059604645}, "emissiveFactor" : [0, 0, 0], "alphaMode" : "OPAQUE", "doubleSided" : true}, {"name" : "SVGMat.003", "pbrMetallicRoughness" : {"baseColorFactor" : [1, 0, 0.09989874064922333, 1], "metallicFactor" : 0, "roughnessFactor" : 0.4000000059604645}, "emissiveFactor" : [0, 0, 0], "alphaMode" : "OPAQUE", "doubleSided" : true}], "meshes" : [{"primitives" : [{"attributes" : {"POSITION" : 1, "NORMAL" : 2, "TEXCOORD_0" : 3}, "indices" : 0, "material" : 0, "mode" : 4}]}, {"primitives" : [{"attributes" : {"POSITION" : 5, "NORMAL" : 6, "TEXCOORD_0" : 7}, "indices" : 4, "material" : 1, "mode" : 4}]}, {"primitives" : [{"attributes" : {"POSITION" : 9, "NORMAL" : 10, "TEXCOORD_0" : 11}, "indices" : 8, "material" : 2, "mode" : 4}]}, {"primitives" : [{"attributes" : {"POSITION" : 13, "NORMAL" : 14, "TEXCOORD_0" : 15}, "indices" : 12, "material" : 3, "mode" : 4}]}, {"primitives" : [{"attributes" : {"POSITION" : 17, "NORMAL" : 18, "TEXCOORD_0" : 19}, "indices" : 16, "material" : 4, "mode" : 4}]}, {"primitives" : [{"attributes" : {"POSITION" : 21, "NORMAL" : 22, "TEXCOORD_0" : 23}, "indices" : 20, "material" : 5, "mode" : 4}]}, {"primitives" : [{"attributes" : {"POSITION" : 25, "NORMAL" : 26, "TEXCOORD_0" : 27}, "indices" : 24, "material" : 6, "mode" : 4}]}, {"primitives" : [{"attributes" : {"POSITION" : 29, "NORMAL" : 30, "TEXCOORD_0" : 31}, "indices" : 28, "material" : 7, "mode" : 4}]}, {"primitives" : [{"attributes" : {"POSITION" : 33, "NORMAL" : 34, "TEXCOORD_0" : 35, "COLOR_0" : 36}, "indices" : 32, "material" : 8, "mode" : 4}]}, {"primitives" : [{"attributes" : {"POSITION" : 38, "NORMAL" : 39, "TEXCOORD_0" : 40}, "indices" : 37, "material" : 9, "mode" : 4}]}], "nodes" : [{"matrix" : [71.50297812715604, -0.10102161147724116, 0.17257652166006848, 0, -0.17976109921083006, -5.439054329400313, 71.29586790132961, 0, -0.08760119305272536, -71.29602295002609, -5.439287030186303, 0, -1.2367498874664307, -0.11067366600036621, -0.5842580795288086, 1], "mesh" : 0, "name" : "Curve"}, {"matrix" : [71.50297812715604, -0.10102161147724116, 0.17257652166006848, 0, -0.17976109921083006, -5.439054329400313, 71.29586790132961, 0, -0.08760119305272536, -71.29602295002609, -5.439287030186303, 0, -1.2367498874664307, -0.11067366600036621, -0.5842580795288086, 1], "mesh" : 1, "name" : "Curve.001"}, {"matrix" : [71.50297812715604, -0.10102161147724116, 0.17257652166006848, 0, -0.17976109921083006, -5.439054329400313, 71.29586790132961, 0, -0.08760119305272536, -71.29602295002609, -5.439287030186303, 0, -1.2367498874664307, -0.11067366600036621, -0.5842580795288086, 1], "mesh" : 2, "name" : "Curve.002"}, {"matrix" : [71.50297812715604, -0.10102161147724116, 0.17257652166006848, 0, -0.17976109921083006, -5.439054329400313, 71.29586790132961, 0, -0.08760119305272536, -71.29602295002609, -5.439287030186303, 0, -1.2367498874664307, -0.11067366600036621, -0.5842580795288086, 1], "mesh" : 3, "name" : "Curve.003"}, {"matrix" : [71.50297812715604, -0.10102161147724116, 0.17257652166006848, 0, -0.17976109921083006, -5.439054329400313, 71.29586790132961, 0, -0.08760119305272536, -71.29602295002609, -5.439287030186303, 0, -1.2367498874664307, -0.11067366600036621, -0.5842580795288086, 1], "mesh" : 4, "name" : "Curve.004"}, {"matrix" : [71.50297812715604, -0.10102161147724116, 0.17257652166006848, 0, -0.17976109921083006, -5.439054329400313, 71.29586790132961, 0, -0.08760119305272536, -71.29602295002609, -5.439287030186303, 0, -1.2367498874664307, -0.11067366600036621, -0.5842580795288086, 1], "mesh" : 5, "name" : "Curve.005"}, {"matrix" : [71.50297812715604, -0.10102161147724116, 0.17257652166006848, 0, -0.17976109921083006, -5.439054329400313, 71.29586790132961, 0, -0.08760119305272536, -71.29602295002609, -5.439287030186303, 0, -1.2367498874664307, -0.11067366600036621, -0.5842580795288086, 1], "mesh" : 6, "name" : "Curve.006"}, {"matrix" : [71.50297812715604, -0.10102161147724116, 0.17257652166006848, 0, -0.17976109921083006, -5.439054329400313, 71.29586790132961, 0, -0.08760119305272536, -71.29602295002609, -5.439287030186303, 0, -1.2367498874664307, -0.11067366600036621, -0.5842580795288086, 1], "mesh" : 7, "name" : "Curve.007"}, {"matrix" : [71.50297812715604, -0.10102161147724116, 0.17257652166006848, 0, -0.17976109921083006, -5.439054329400313, 71.29586790132961, 0, -0.08760119305272536, -71.29602295002609, -5.439287030186303, 0, -1.2367498874664307, -0.11067366600036621, -0.5842580795288086, 1], "mesh" : 8, "name" : "Curve.008"}, {"matrix" : [71.50297812715604, -0.10102161147724116, 0.17257652166006848, 0, -0.17976109921083006, -5.439054329400313, 71.29586790132961, 0, -0.08760119305272536, -71.29602295002609, -5.439287030186303, 0, -1.2367498874664307, -0.11067366600036621, -0.5842580795288086, 1], "mesh" : 9, "name" : "Curve.009"}], "scene" : 0, "scenes" : [{"nodes" : [0, 1, 2, 3, 4, 5, 6, 7, 8, 9]}]}