{
	"asset":{
		"generator":"Khronos glTF Blender I/O v3.6.27",
		"version":"2.0"
	},
	"scene":0,
	"scenes":[
		{
			"name":"Scene",
			"nodes":[
				0,
				1,
				2,
				3,
				4
			]
		}
	],
	"nodes":[
		{
			"mesh":0,
			"name":"Curve",
			"rotation":[
				0.7058850526809692,
				0,
				0,
				0.7083264589309692
			],
			"scale":[
				25.654996871948242,
				25.654996871948242,
				25.654996871948242
			],
			"translation":[
				-4.01576042175293,
				-2.100526809692383,
				-0.02245181053876877
			]
		},
		{
			"mesh":1,
			"name":"Curve.001",
			"rotation":[
				0.7058850526809692,
				0,
				0,
				0.7083264589309692
			],
			"scale":[
				25.654996871948242,
				25.654996871948242,
				25.654996871948242
			],
			"translation":[
				-4.01576042175293,
				-2.100526809692383,
				-0.02245181053876877
			]
		},
		{
			"mesh":2,
			"name":"Curve.002",
			"rotation":[
				0.7058850526809692,
				0,
				0,
				0.7083264589309692
			],
			"scale":[
				25.654996871948242,
				25.654996871948242,
				25.654996871948242
			],
			"translation":[
				-4.01576042175293,
				-2.100526809692383,
				-0.02245181053876877
			]
		},
		{
			"mesh":3,
			"name":"Curve.003",
			"rotation":[
				0.7058850526809692,
				0,
				0,
				0.7083264589309692
			],
			"scale":[
				25.654996871948242,
				25.654996871948242,
				25.654996871948242
			],
			"translation":[
				-4.01576042175293,
				-2.100526809692383,
				-0.02245181053876877
			]
		},
		{
			"mesh":4,
			"name":"Curve.004",
			"rotation":[
				0.7058850526809692,
				0,
				0,
				0.7083264589309692
			],
			"scale":[
				25.654996871948242,
				25.654996871948242,
				25.654996871948242
			],
			"translation":[
				-4.01576042175293,
				-2.100526809692383,
				-0.02245181053876877
			]
		}
	],
	"materials":[
		{
			"doubleSided":true,
			"name":"SVGMat.001",
			"pbrMetallicRoughness":{
				"baseColorFactor":[
					0,
					0,
					0,
					1
				],
				"metallicFactor":0,
				"roughnessFactor":0.4000000059604645
			}
		}
	],
	"meshes":[
		{
			"name":"Curve",
			"primitives":[
				{
					"attributes":{
						"POSITION":0,
						"NORMAL":1,
						"TEXCOORD_0":2
					},
					"indices":3,
					"material":0
				}
			]
		},
		{
			"name":"Curve.001",
			"primitives":[
				{
					"attributes":{
						"POSITION":4,
						"NORMAL":5,
						"TEXCOORD_0":6
					},
					"indices":7,
					"material":0
				}
			]
		},
		{
			"name":"Curve.002",
			"primitives":[
				{
					"attributes":{
						"POSITION":8,
						"NORMAL":9,
						"TEXCOORD_0":10
					},
					"indices":11,
					"material":0
				}
			]
		},
		{
			"name":"Curve.003",
			"primitives":[
				{
					"attributes":{
						"POSITION":12,
						"NORMAL":13,
						"TEXCOORD_0":14
					},
					"indices":15,
					"material":0
				}
			]
		},
		{
			"name":"Curve.004",
			"primitives":[
				{
					"attributes":{
						"POSITION":16,
						"NORMAL":17,
						"TEXCOORD_0":18
					},
					"indices":19,
					"material":0
				}
			]
		}
	],
	"accessors":[
		{
			"bufferView":0,
			"componentType":5126,
			"count":1884,
			"max":[
				0.23213285207748413,
				0.006000000052154064,
				-0.026517648249864578
			],
			"min":[
				0.08265984803438187,
				-0.006000000052154064,
				-0.16608856618404388
			],
			"type":"VEC3"
		},
		{
			"bufferView":1,
			"componentType":5126,
			"count":1884,
			"type":"VEC3"
		},
		{
			"bufferView":2,
			"componentType":5126,
			"count":1884,
			"type":"VEC2"
		},
		{
			"bufferView":3,
			"componentType":5123,
			"count":5616,
			"type":"SCALAR"
		},
		{
			"bufferView":4,
			"componentType":5126,
			"count":1477,
			"max":[
				0.22576077282428741,
				0.006000000052154064,
				-0.11391247808933258
			],
			"min":[
				0.15957577526569366,
				-0.006000000052154064,
				-0.15548260509967804
			],
			"type":"VEC3"
		},
		{
			"bufferView":5,
			"componentType":5126,
			"count":1477,
			"type":"VEC3"
		},
		{
			"bufferView":6,
			"componentType":5126,
			"count":1477,
			"type":"VEC2"
		},
		{
			"bufferView":7,
			"componentType":5123,
			"count":4320,
			"type":"SCALAR"
		},
		{
			"bufferView":8,
			"componentType":5126,
			"count":686,
			"max":[
				0.22750820219516754,
				0.006000000052154064,
				-0.018554391339421272
			],
			"min":[
				0.1343488246202469,
				-0.006000000052154064,
				-0.06598980724811554
			],
			"type":"VEC3"
		},
		{
			"bufferView":9,
			"componentType":5126,
			"count":686,
			"type":"VEC3"
		},
		{
			"bufferView":10,
			"componentType":5126,
			"count":686,
			"type":"VEC2"
		},
		{
			"bufferView":11,
			"componentType":5123,
			"count":2040,
			"type":"SCALAR"
		},
		{
			"bufferView":12,
			"componentType":5126,
			"count":566,
			"max":[
				0.2200404703617096,
				0.006000000052154064,
				-0.01700936071574688
			],
			"min":[
				0.1518222540616989,
				-0.006000000052154064,
				-0.05298783257603645
			],
			"type":"VEC3"
		},
		{
			"bufferView":13,
			"componentType":5126,
			"count":566,
			"type":"VEC3"
		},
		{
			"bufferView":14,
			"componentType":5126,
			"count":566,
			"type":"VEC2"
		},
		{
			"bufferView":15,
			"componentType":5123,
			"count":1608,
			"type":"SCALAR"
		},
		{
			"bufferView":16,
			"componentType":5126,
			"count":390,
			"max":[
				0.20622138679027557,
				0.006000000052154064,
				-0.019025100395083427
			],
			"min":[
				0.17143630981445312,
				-0.006000000052154064,
				-0.03693501278758049
			],
			"type":"VEC3"
		},
		{
			"bufferView":17,
			"componentType":5126,
			"count":390,
			"type":"VEC3"
		},
		{
			"bufferView":18,
			"componentType":5126,
			"count":390,
			"type":"VEC2"
		},
		{
			"bufferView":19,
			"componentType":5123,
			"count":1152,
			"type":"SCALAR"
		}
	],
	"bufferViews":[
		{
			"buffer":0,
			"byteLength":22608,
			"byteOffset":0,
			"target":34962
		},
		{
			"buffer":0,
			"byteLength":22608,
			"byteOffset":22608,
			"target":34962
		},
		{
			"buffer":0,
			"byteLength":15072,
			"byteOffset":45216,
			"target":34962
		},
		{
			"buffer":0,
			"byteLength":11232,
			"byteOffset":60288,
			"target":34963
		},
		{
			"buffer":0,
			"byteLength":17724,
			"byteOffset":71520,
			"target":34962
		},
		{
			"buffer":0,
			"byteLength":17724,
			"byteOffset":89244,
			"target":34962
		},
		{
			"buffer":0,
			"byteLength":11816,
			"byteOffset":106968,
			"target":34962
		},
		{
			"buffer":0,
			"byteLength":8640,
			"byteOffset":118784,
			"target":34963
		},
		{
			"buffer":0,
			"byteLength":8232,
			"byteOffset":127424,
			"target":34962
		},
		{
			"buffer":0,
			"byteLength":8232,
			"byteOffset":135656,
			"target":34962
		},
		{
			"buffer":0,
			"byteLength":5488,
			"byteOffset":143888,
			"target":34962
		},
		{
			"buffer":0,
			"byteLength":4080,
			"byteOffset":149376,
			"target":34963
		},
		{
			"buffer":0,
			"byteLength":6792,
			"byteOffset":153456,
			"target":34962
		},
		{
			"buffer":0,
			"byteLength":6792,
			"byteOffset":160248,
			"target":34962
		},
		{
			"buffer":0,
			"byteLength":4528,
			"byteOffset":167040,
			"target":34962
		},
		{
			"buffer":0,
			"byteLength":3216,
			"byteOffset":171568,
			"target":34963
		},
		{
			"buffer":0,
			"byteLength":4680,
			"byteOffset":174784,
			"target":34962
		},
		{
			"buffer":0,
			"byteLength":4680,
			"byteOffset":179464,
			"target":34962
		},
		{
			"buffer":0,
			"byteLength":3120,
			"byteOffset":184144,
			"target":34962
		},
		{
			"buffer":0,
			"byteLength":2304,
			"byteOffset":187264,
			"target":34963
		}
	],
	"buffers":[
		{
			"byteLength":189568,
			"uri":"data:application/octet-stream;base64,"
		}
	]
}
