{
	"asset":{
		"generator":"Khronos glTF Blender I/O v3.6.27",
		"version":"2.0"
	},
	"scene":0,
	"scenes":[
		{
			"name":"Scene",
			"nodes":[
				0,
				1,
				2
			]
		}
	],
	"nodes":[
		{
			"mesh":0,
			"name":"Curve",
			"rotation":[
				0.7139611840248108,
				0.00019012849952559918,
				-0.0004767657374031842,
				0.7001851797103882
			],
			"scale":[
				35.198760986328125,
				35.19876480102539,
				35.19875717163086
			],
			"translation":[
				-5.19343376159668,
				-3.534583330154419,
				-0.02620673179626465
			]
		},
		{
			"mesh":1,
			"name":"Curve.001",
			"rotation":[
				0.7139611840248108,
				0.00019012849952559918,
				-0.0004767657374031842,
				0.7001851797103882
			],
			"scale":[
				35.198760986328125,
				35.19876480102539,
				35.19875717163086
			],
			"translation":[
				-5.19343376159668,
				-3.534583330154419,
				-0.02620673179626465
			]
		},
		{
			"mesh":2,
			"name":"Curve.002",
			"rotation":[
				0.7139611840248108,
				0.00019012849952559918,
				-0.0004767657374031842,
				0.7001851797103882
			],
			"scale":[
				35.198760986328125,
				35.19876480102539,
				35.19875717163086
			],
			"translation":[
				-5.19343376159668,
				-3.534583330154419,
				-0.02620673179626465
			]
		}
	],
	"materials":[
		{
			"doubleSided":true,
			"name":"SVGMat.001",
			"pbrMetallicRoughness":{
				"baseColorFactor":[
					1,
					1,
					1,
					1
				],
				"metallicFactor":0,
				"roughnessFactor":0.4000000059604645
			}
		}
	],
	"meshes":[
		{
			"name":"Curve",
			"primitives":[
				{
					"attributes":{
						"POSITION":0,
						"NORMAL":1,
						"TEXCOORD_0":2
					},
					"indices":3,
					"material":0
				}
			]
		},
		{
			"name":"Curve.001",
			"primitives":[
				{
					"attributes":{
						"POSITION":4,
						"NORMAL":5,
						"TEXCOORD_0":6
					},
					"indices":7,
					"material":0
				}
			]
		},
		{
			"name":"Curve.002",
			"primitives":[
				{
					"attributes":{
						"POSITION":8,
						"NORMAL":9,
						"TEXCOORD_0":10
					},
					"indices":11,
					"material":0
				}
			]
		}
	],
	"accessors":[
		{
			"bufferView":0,
			"componentType":5126,
			"count":2481,
			"max":[
				0.12705513834953308,
				0.006000000052154064,
				-0.025041017681360245
			],
			"min":[
				0.03390145301818848,
				-0.006000000052154064,
				-0.1618744432926178
			],
			"type":"VEC3"
		},
		{
			"bufferView":1,
			"componentType":5126,
			"count":2481,
			"type":"VEC3"
		},
		{
			"bufferView":2,
			"componentType":5126,
			"count":2481,
			"type":"VEC2"
		},
		{
			"bufferView":3,
			"componentType":5123,
			"count":7380,
			"type":"SCALAR"
		},
		{
			"bufferView":4,
			"componentType":5126,
			"count":961,
			"max":[
				0.26707974076271057,
				0.006000000052154064,
				-0.025221634656190872
			],
			"min":[
				0.15906551480293274,
				-0.006000000052154064,
				-0.15292249619960785
			],
			"type":"VEC3"
		},
		{
			"bufferView":5,
			"componentType":5126,
			"count":961,
			"type":"VEC3"
		},
		{
			"bufferView":6,
			"componentType":5126,
			"count":961,
			"type":"VEC2"
		},
		{
			"bufferView":7,
			"componentType":5123,
			"count":2820,
			"type":"SCALAR"
		},
		{
			"bufferView":8,
			"componentType":5126,
			"count":964,
			"max":[
				0.19121216237545013,
				0.006000000052154064,
				-0.05868042632937431
			],
			"min":[
				0.1260228008031845,
				-0.006000000052154064,
				-0.12064161896705627
			],
			"type":"VEC3"
		},
		{
			"bufferView":9,
			"componentType":5126,
			"count":964,
			"type":"VEC3"
		},
		{
			"bufferView":10,
			"componentType":5126,
			"count":964,
			"type":"VEC2"
		},
		{
			"bufferView":11,
			"componentType":5123,
			"count":2880,
			"type":"SCALAR"
		}
	],
	"bufferViews":[
		{
			"buffer":0,
			"byteLength":29772,
			"byteOffset":0,
			"target":34962
		},
		{
			"buffer":0,
			"byteLength":29772,
			"byteOffset":29772,
			"target":34962
		},
		{
			"buffer":0,
			"byteLength":19848,
			"byteOffset":59544,
			"target":34962
		},
		{
			"buffer":0,
			"byteLength":14760,
			"byteOffset":79392,
			"target":34963
		},
		{
			"buffer":0,
			"byteLength":11532,
			"byteOffset":94152,
			"target":34962
		},
		{
			"buffer":0,
			"byteLength":11532,
			"byteOffset":105684,
			"target":34962
		},
		{
			"buffer":0,
			"byteLength":7688,
			"byteOffset":117216,
			"target":34962
		},
		{
			"buffer":0,
			"byteLength":5640,
			"byteOffset":124904,
			"target":34963
		},
		{
			"buffer":0,
			"byteLength":11568,
			"byteOffset":130544,
			"target":34962
		},
		{
			"buffer":0,
			"byteLength":11568,
			"byteOffset":142112,
			"target":34962
		},
		{
			"buffer":0,
			"byteLength":7712,
			"byteOffset":153680,
			"target":34962
		},
		{
			"buffer":0,
			"byteLength":5760,
			"byteOffset":161392,
			"target":34963
		}
	],
	"buffers":[
		{
			"byteLength":167152,
			"uri":"data:application/octet-stream;base64,"
		}
	]
}
