{"accessors" : [{"bufferView" : 0, "byteOffset" : 0, "componentType" : 5123, "count" : 10128, "type" : "SCALAR", "max" : [9066], "min" : [0]}, {"bufferView" : 1, "byteOffset" : 0, "componentType" : 5126, "count" : 9067, "type" : "VEC3", "max" : [0.17222818732261658, 0.003000000026077032, -0.02218128927052021], "min" : [0.058605704456567764, -0.003000000026077032, -0.12850962579250336], "name" : "POSITION"}, {"bufferView" : 1, "byteOffset" : 12, "componentType" : 5126, "count" : 9067, "type" : "VEC3", "max" : [1.0000044107437134, 1.0000044107437134, 1.0000028610229492], "min" : [-0.9999827146530151, -1.0000044107437134, -1.0000041723251343], "name" : "NORMAL"}, {"bufferView" : 1, "byteOffset" : 24, "componentType" : 5126, "count" : 9067, "type" : "VEC2", "max" : [1, 1], "min" : [0, 0], "name" : "TEXCOORD_0"}, {"bufferView" : 0, "byteOffset" : 20256, "componentType" : 5123, "count" : 6096, "type" : "SCALAR", "max" : [5486], "min" : [0]}, {"bufferView" : 2, "byteOffset" : 0, "componentType" : 5126, "count" : 5487, "type" : "VEC3", "max" : [0.16826272010803223, 0.003000000026077032, -0.08884185552597046], "min" : [0.11769067496061325, -0.003000000026077032, -0.12043237686157227], "name" : "POSITION"}, {"bufferView" : 2, "byteOffset" : 12, "componentType" : 5126, "count" : 5487, "type" : "VEC3", "max" : [0.9999799132347107, 1.0000044107437134, 1.0000044107437134], "min" : [-0.999997079372406, -1.0000044107437134, -1.0000041723251343], "name" : "NORMAL"}, {"bufferView" : 2, "byteOffset" : 24, "componentType" : 5126, "count" : 5487, "type" : "VEC2", "max" : [1, 1], "min" : [0, 0], "name" : "TEXCOORD_0"}, {"bufferView" : 0, "byteOffset" : 32448, "componentType" : 5123, "count" : 3600, "type" : "SCALAR", "max" : [3228], "min" : [0]}, {"bufferView" : 3, "byteOffset" : 0, "componentType" : 5126, "count" : 3229, "type" : "VEC3", "max" : [0.16895751655101776, 0.003000000026077032, -0.014718309044837952], "min" : [0.09883646667003632, -0.003000000026077032, -0.050878752022981644], "name" : "POSITION"}, {"bufferView" : 3, "byteOffset" : 12, "componentType" : 5126, "count" : 3229, "type" : "VEC3", "max" : [0.9872528910636902, 1.0000044107437134, 0.9989953637123108], "min" : [-0.9936903715133667, -1.0000044107437134, -1.0000039339065552], "name" : "NORMAL"}, {"bufferView" : 3, "byteOffset" : 24, "componentType" : 5126, "count" : 3229, "type" : "VEC2", "max" : [1, 1], "min" : [0, 0], "name" : "TEXCOORD_0"}, {"bufferView" : 0, "byteOffset" : 39648, "componentType" : 5123, "count" : 3468, "type" : "SCALAR", "max" : [3107], "min" : [0]}, {"bufferView" : 4, "byteOffset" : 0, "componentType" : 5126, "count" : 3108, "type" : "VEC3", "max" : [0.16425849497318268, 0.003000000026077032, -0.013400922529399395], "min" : [0.1119096428155899, -0.003000000026077032, -0.04117598757147789], "name" : "POSITION"}, {"bufferView" : 4, "byteOffset" : 12, "componentType" : 5126, "count" : 3108, "type" : "VEC3", "max" : [1.0000044107437134, 1.0000044107437134, 0.9976361393928528], "min" : [-1.0000044107437134, -1.0000044107437134, -0.9999976754188538], "name" : "NORMAL"}, {"bufferView" : 4, "byteOffset" : 24, "componentType" : 5126, "count" : 3108, "type" : "VEC2", "max" : [1, 1], "min" : [0, 0], "name" : "TEXCOORD_0"}, {"bufferView" : 0, "byteOffset" : 46584, "componentType" : 5123, "count" : 2160, "type" : "SCALAR", "max" : [1940], "min" : [0]}, {"bufferView" : 5, "byteOffset" : 0, "componentType" : 5126, "count" : 1941, "type" : "VEC3", "max" : [0.15357705950737, 0.003000000026077032, -0.015433254651725292], "min" : [0.12756603956222534, -0.003000000026077032, -0.02873235009610653], "name" : "POSITION"}, {"bufferView" : 5, "byteOffset" : 12, "componentType" : 5126, "count" : 1941, "type" : "VEC3", "max" : [0.9982043504714966, 1.0000044107437134, 1.000003695487976], "min" : [-0.9751619696617126, -1.0000044107437134, -0.9999915957450867], "name" : "NORMAL"}, {"bufferView" : 5, "byteOffset" : 24, "componentType" : 5126, "count" : 1941, "type" : "VEC2", "max" : [1, 1], "min" : [0, 0], "name" : "TEXCOORD_0"}], "asset" : {"generator" : "Aspose.3D 23.4.0", "version" : "2.0"}, "buffers" : [{"uri" : "data:application/octet-stream;base64,", "byteLength" : 865392}], "bufferViews" : [{"buffer" : 0, "byteOffset" : 0, "byteLength" : 50904, "target" : 34963}, {"buffer" : 0, "byteOffset" : 50908, "byteLength" : 324096, "byteStride" : 32, "target" : 34962}, {"buffer" : 0, "byteOffset" : 375008, "byteLength" : 195072, "byteStride" : 32, "target" : 34962}, {"buffer" : 0, "byteOffset" : 570084, "byteLength" : 115200, "byteStride" : 32, "target" : 34962}, {"buffer" : 0, "byteOffset" : 685288, "byteLength" : 110976, "byteStride" : 32, "target" : 34962}, {"buffer" : 0, "byteOffset" : 796268, "byteLength" : 69120, "byteStride" : 32, "target" : 34962}], "materials" : [{"name" : "SVGMat.001", "pbrMetallicRoughness" : {"baseColorFactor" : [0.0006064344779588282, 0.32314297556877136, 0.5840784907341003, 1], "metallicFactor" : 0, "roughnessFactor" : 0.4000000059604645}, "emissiveFactor" : [0, 0, 0], "alphaMode" : "OPAQUE", "doubleSided" : true}, {"name" : "SVGMat.001", "pbrMetallicRoughness" : {"baseColorFactor" : [0.0006064344779588282, 0.32314297556877136, 0.5840784907341003, 1], "metallicFactor" : 0, "roughnessFactor" : 0.4000000059604645}, "emissiveFactor" : [0, 0, 0], "alphaMode" : "OPAQUE", "doubleSided" : true}, {"name" : "SVGMat.001", "pbrMetallicRoughness" : {"baseColorFactor" : [0.0006064344779588282, 0.32314297556877136, 0.5840784907341003, 1], "metallicFactor" : 0, "roughnessFactor" : 0.4000000059604645}, "emissiveFactor" : [0, 0, 0], "alphaMode" : "OPAQUE", "doubleSided" : true}, {"name" : "SVGMat.001", "pbrMetallicRoughness" : {"baseColorFactor" : [0.0006064344779588282, 0.32314297556877136, 0.5840784907341003, 1], "metallicFactor" : 0, "roughnessFactor" : 0.4000000059604645}, "emissiveFactor" : [0, 0, 0], "alphaMode" : "OPAQUE", "doubleSided" : true}, {"name" : "SVGMat.001", "pbrMetallicRoughness" : {"baseColorFactor" : [0.0006064344779588282, 0.32314297556877136, 0.5840784907341003, 1], "metallicFactor" : 0, "roughnessFactor" : 0.4000000059604645}, "emissiveFactor" : [0, 0, 0], "alphaMode" : "OPAQUE", "doubleSided" : true}], "meshes" : [{"primitives" : [{"attributes" : {"POSITION" : 1, "NORMAL" : 2, "TEXCOORD_0" : 3}, "indices" : 0, "material" : 0, "mode" : 4}]}, {"primitives" : [{"attributes" : {"POSITION" : 5, "NORMAL" : 6, "TEXCOORD_0" : 7}, "indices" : 4, "material" : 1, "mode" : 4}]}, {"primitives" : [{"attributes" : {"POSITION" : 9, "NORMAL" : 10, "TEXCOORD_0" : 11}, "indices" : 8, "material" : 2, "mode" : 4}]}, {"primitives" : [{"attributes" : {"POSITION" : 13, "NORMAL" : 14, "TEXCOORD_0" : 15}, "indices" : 12, "material" : 3, "mode" : 4}]}, {"primitives" : [{"attributes" : {"POSITION" : 17, "NORMAL" : 18, "TEXCOORD_0" : 19}, "indices" : 16, "material" : 4, "mode" : 4}]}], "nodes" : [{"matrix" : [15.651228904724121, 0, 0, 0, 0, 0.2708528605740316, 15.64888721437681, 0, 0, -15.64888721437681, 0.2708528605740316, 0, -0.30024924874305725, -0.05138471722602844, -0.008075237274169922, 1], "mesh" : 0, "name" : "Curve"}, {"matrix" : [15.651228904724121, 0, 0, 0, 0, 0.2708528605740316, 15.64888721437681, 0, 0, -15.64888721437681, 0.2708528605740316, 0, -0.30024924874305725, -0.05138471722602844, -0.008075237274169922, 1], "mesh" : 1, "name" : "Curve.001"}, {"matrix" : [15.651228904724121, 0, 0, 0, 0, 0.2708528605740316, 15.64888721437681, 0, 0, -15.64888721437681, 0.2708528605740316, 0, -0.30024924874305725, -0.05138471722602844, -0.008075237274169922, 1], "mesh" : 2, "name" : "Curve.002"}, {"matrix" : [15.651228904724121, 0, 0, 0, 0, 0.2708528605740316, 15.64888721437681, 0, 0, -15.64888721437681, 0.2708528605740316, 0, -0.30024924874305725, -0.05138471722602844, -0.008075237274169922, 1], "mesh" : 3, "name" : "Curve.003"}, {"matrix" : [15.651228904724121, 0, 0, 0, 0, 0.2708528605740316, 15.64888721437681, 0, 0, -15.64888721437681, 0.2708528605740316, 0, -0.30024924874305725, -0.05138471722602844, -0.008075237274169922, 1], "mesh" : 4, "name" : "Curve.004"}], "scene" : 0, "scenes" : [{"nodes" : [0, 1, 2, 3, 4]}]}